# xmcd
#
# Track frame offsets: 
#        150
#        12015
#        24061
#        34793
#        45396
#        56260
#        65972
#        76964
#        89035
#        100962
#        112774
#        123555
#        137541
#        147486
#        161673
#        173228
#        187818
#        201233
#        212288
#        224118
#        235091
#        247815
#        261490
#        275493
#        291284
#
# Disc length: 4096 seconds
#
# Revision: 2
# Processed by: cddbd v1.5.2PL0 Copyright (c) Steve Scherf et al.
# Submitted via: ExactAudioCopy v1.1
#
DISCID=670ffe19
DTITLE=Tennessee Ernie Ford - His Original and Greatest Hits Vol.1_''THE
DTITLE=SHOT-GUN BOOGIE''
DYEAR=2001
DGENRE=Country
TTITLE0=Shot-Gun Boogie
TTITLE1=Smoky Mountain Boogie
TTITLE2=Country Junction
TTITLE3=Tailor Made Woman
TTITLE4=I Got The Milk 'Em In The Morning', Feed 'Em In The Evenin Blu
TTITLE4=es
TTITLE5=Anticipation Blues
TTITLE6=Feed 'Em In The Morning', Change 'Em, Feed 'Em In The Evenin' 
TTITLE6=Blues
TTITLE7=Ain't Nobody's Business But My Own
TTITLE8=Blues Stay Away From Me
TTITLE9=I'll Never Be Free
TTITLE10=I Ain't A-Gonna Let It Happen No More
TTITLE11=Mule Train
TTITLE12=The Donkey Serenade
TTITLE13=Mister And Mississippi
TTITLE14=My Hobby
TTITLE15=The Cry Of The Wild Goose
TTITLE16=The Lord's Lariat
TTITLE17=Tennessee Border #1
TTITLE18=You're My Sugat
TTITLE19=What This Country Needs Is A Good Old Fashoned Talk With The 
TTITLE19=Lord
TTITLE20=Stack-O-Lee
TTITLE21=The Strange Little Girl
TTITLE22=Bright Lights And Blond Haired Women
TTITLE23=Smoky Mountain Boogie
TTITLE24=Country Junction
EXTD=
EXTT0=
EXTT1=
EXTT2=
EXTT3=
EXTT4=
EXTT5=
EXTT6=
EXTT7=
EXTT8=
EXTT9=
EXTT10=
EXTT11=
EXTT12=
EXTT13=
EXTT14=
EXTT15=
EXTT16=
EXTT17=
EXTT18=
EXTT19=
EXTT20=
EXTT21=
EXTT22=
EXTT23=
EXTT24=
PLAYORDER=
